<?xml version="1.0" encoding="UTF-8"?>
<svg xmlns="http://www.w3.org/2000/svg" viewBox="0 0 863.89 882.11">
  <g id="a" data-name="layer3">
    <path d="m546.93,882.11h-18c-16.92-9.36-34.9-3.95-42.02-28.43-5.72-19.48-11.52-38.94-17.06-58.47-3.64-15.01-20.79-7.08-31.84-9.35-9.47.36-19.11,2.13-28.35.89-10.45-1.41-11.87.28-15.75,9.63-15.22,24.2-14.39,85.89-51.97,81.69-121.42,7.93-121.77-17.85-79.23-123.28.8-.32,1.6-.63,2.4-.95-16.84-11.15-27.85-30.68-15.02-49.24,9.43-21.5,18.7-43.06,28.35-64.46,14.55-33.69,29.79-35.67-9.08-56.86-37.36,32.6-152.73,11.85-176.39-33.7C37.77,531.86,2.69,496.28,0,435.17,184.21,466.36-68.43,141.95,306.72,14.03c74.82-20.75,165.1-21.99,232.25,20.54,154.05-8.28,243.89,118.13,232.09,264.06.47,22.06-4.04,44.19.7,65.98,15.88,36.78,45.23,59.88,86.36,52.33,3.28,10.27,5.71,20.39,4.76,31.23-5.14,9.15-5.18,20.97-8.05,31.15-8.56,42.52-49.38,65.87-90,68.94-7.84,3.11-10.57,13.45-16.86,18.71-4.77,4.79-10.54,8.63-16.05,12.62-36.47,26.41-75.31,35.86-118.15,16.31-5.04-2.3-9.59-1.01-12.72,3.44-6.45,9.35-12.48,20.14-22.79,25.86,12.08,35.18,28.79,67.09,43.02,101.23,2.87,6.62,2.76,13.64-1.69,20.01-1.6,9.25-8.97,19.21-5.78,28.28,30.55,91.92,22.16,91.7-66.88,107.38Z"/>
  </g>
  <g id="b" data-name="layer2">
    <g>
      <path d="m434.95,22.11c26.68,5.3,55.34,5.12,80.04,17.43-8.27,3.77-15.37,7-22.47,10.24.14.45.29.89.43,1.34,203.56-1.61,264.09,114.24,247.46,301.88-6.59-4.11-12.77-7.96-19.44-12.12,5.38-30.49-11.44-114.72-40.66-129.8,5.83,40.34,15.63,79.76,16.98,120.94-50.35-1.32-92.84-29.76-133.27-56.87-31.39-28.98-38.12-72.46-43.91-113.07-58,125.05-67.11,111.27-195.22,139.48-24.58,4.12-49.63,5.97-74.48,7.35-15.46.54-27.98,7.61-40.96,14.73-9.54,6.32-23.81,5.28-31.13,14.8-.59-.22-1.17-.44-1.76-.66,2.87-60.65,40.04-114.74,86.08-152-66.13,2.8-96.85,89.45-119.33,141.26-2.43,6.05-6.1,12.8-2.5,20.07-2.93,6.24-12,9.33-16.07,15.04-7.35,8.26-13.11,17.87-20.28,26.3-.47-.18-.94-.36-1.4-.54C89.27,184.41,219.53,8.85,434.95,22.11Z" style="fill: #ba9343;"/>
      <path d="m846.9,436.08c-11,37.35-29.99,70.61-71.21,79.16-12.89,3.12-24.95,9.73-37.38,14.76-8.25,4.11-11.33,8.98-3.3,15.27-22.94,24.09-89.47,31.72-111.75,12.78,7.08-7.66,14.33-15.17,21.18-23.03,6.29-5.82,9.29-16.71,18.18-18.88,74.89-.86,117.92-15.4,114.97-100,19.96,15.04,44.39,24.3,69.3,18.94v1Z" style="fill: #ba9343;"/>
      <path d="m17,460.08c31.97,4.26,56.27,1.55,75.98-26.79,5.23,65.43,63.31,80.53,112.41,87.68,5.41-.05,8.32,2.01,11.35,6.01,7,9.27,14.5,18.17,22.06,27.55-13.27,6.41-27.12,9.75-41.53,8.4-24.51-3.3-48.43-3.32-71.55-13.78,15.17-6.37,16.42-26.04-.63-29.97-43.6-2.41-84.25-18.53-108.08-57.1,0-.67,0-1.33,0-2Z" style="fill: #ba9343;"/>
    </g>
  </g>
  <g id="c" data-name="layer8">
    <g>
      <path d="m512.95,229.11c5.15,46.17,89.73,131.25,134.42,142.83,5.12,1.54,7.76,3.16,7.86,9.53,4.26,48.52-13.03,132.24-61.26,151.27-28.51-16.61-63.06-13.17-93.83-7.28-52.46,8.06-33.86,6.31-81.07-11.02-48.09-15.86-127.37-33.12-142.68,33.03-54.67-47.78-87.03-125.35-63.62-195.99,11.89-8.4,24.75-14.35,39.7-14.61,87.89-10.32,221.08-11.47,258.49-107.75.67,0,1.33,0,2,0Z" style="fill: #f3e5d5;"/>
      <path d="m746.92,440.09c-4.22,11.05-8.74,23.36-19.57,29.39-15.94,8.8-33.13,14.99-51.74,14.66,14.73-39.59,14.79-80.15,11.21-122.4,44.17-7,63.56,41.84,60.1,78.35Z" style="fill: #f3e5d5;"/>
      <path d="m391.87,651.74c-15.58-2.37-61.21,1.2-64.53-18.44-1.65-9.74-.87-11.48,8.11-16.91,56.09-33.38,170.65-84.8,232.89-52.79,32.53,36.81-31.42,51.54-56.65,60.6-41.65,12.31-73.39,30.5-119.81,27.55Z" style="fill: #f3e5d5;"/>
      <path d="m370.03,783.73c-10.12,21.32-23.7,39.95-25.68,63.65,3.45,11.38-66.15,3.8-75.77,2.85,6.43-26.62,10.99-53.97,24.39-77.91.67-1.11,2.56-2.41,3.63-2.22,24.36,4.4,48.68,9,73.43,13.64Z" style="fill: #f3e5d5;"/>
      <path d="m497.75,782.36c26.46-4.15,52.22-8.2,79.02-12.4,4.91,24.84,7.47,50.45,10.73,75.62.43,3.21-1.37,3.96-3.45,4.32-88.2,15.44-61.1.65-86.29-67.54Z" style="fill: #f3e5d5;"/>
      <path d="m176.16,364.75c-2.93,40.66-1.78,80.34,13.68,118.54-79.61,11.96-85.77-106.07-13.68-118.54Z" style="fill: #f3e5d5;"/>
      <path d="m415.81,541.52c-20.14,9.18-68.36,37.91-87.84,33.77-7.33-3.7-14.93-6.88-19.32-14.32-14.3-58.48,77.9-30.4,107.16-19.44Z" style="fill: #f3e5d5;"/>
      <path d="m485.15,662.66c16.68-4.67,34.35-8.08,49.23-17.37,3.92-2.68,6.19-2.18,8.01,2.24,11.75,33.01-42.23,26.04-57.24,15.12Z" style="fill: #f3e5d5;"/>
    </g>
  </g>
  <g id="d" data-name="layer5">
    <path d="m564.15,665.02c4,8.27,21.27,64.02,10.65,65.08-57.1,14.99-118.01,18.9-176.71,13.16-34.69-7.23-90.2,4.87-104.33-36.41,3.82-14.32,8.54-28.32,14.01-42.09,48.16,19.26,93.08,28.48,145.04,11.42,33.53,14.62,94.44,35.45,111.33-11.16Z" style="fill: #315aab;"/>
  </g>
  <g id="e" data-name="layer6">
    <path d="m183.55,190.44c-13.57,31.89-29.46,64.23-38.53,97.57-2.87-25.52.59-53.6,9.7-77.98,2.36-8.3,24.91-42.05,28.83-19.58Z"/>
  </g>
  <g id="f" data-name="layer7">
    <path d="m264,370.5c3.9-19.59,139.19,40.22,159.29,45.75,6.7,2.58,32.38-15.83,41.63-18.92,37.16-16.48,75.03-35.22,114.59-44.38,12.61-.86,14.4,19.94,2.71,22.74-43.2,14.67-86.04,31.64-126.35,53.18,35.51,14.33,71.71,26.89,106.69,42.5,9.12,3.82,21.65,8.66,18.06,20.89-.78,3.87-4.16,7.72-8.11,8.66-1.07.14-2.27-.24-3.15.78-46.84-17.42-93.26-37.24-140.02-55.34-2.54-1.03-4.58-.94-7,.4-45.26,23.88-90.32,50.08-138.6,67.16-15.51,1.72-16.06-16.19-2.81-21.43,38.18-20.49,78.06-37.76,115.86-59.06-38.64-15.52-77.7-30.03-116.35-45.58-6.1-2.55-12.6-5.19-16.43-10.64,0-2.24,0-4.47,0-6.71Z"/>
  </g>
</svg>