<?xml version="1.0" encoding="UTF-8"?>
<svg xmlns="http://www.w3.org/2000/svg" viewBox="0 0 683.6 861.89">
  <g id="a" data-name="layer2">
    <path d="m367.06,0c61.4,8.34,50.33,7.28,96.42,44.65,42.83-6.84,83.08,12.51,101.59,51.46,66.85,25.06,79.9,97.2,59.18,156.97,12.9,19.56,12.11,46.52.08,66.19,16.55,7.43,27.99,21.67,40.59,34.14,21.78,25.78,23.3,64.03,10.8,94.18-17.14,53.67-70.13,40.94-112.93,50.74-10.6,15.27-22.96,28.97-36.78,41.32-18.57,17.24-6.62,36.35-39.22,63.36-1.24,1.1-2.76,3.52-2.33,4.62,3.6,9.36,7.56,18.59,11.54,27.81,20.8,43.24,50.75,70.66,45.16,123.66.45,15.98-12.34,17.79-12.77,25.39,1.9,12.08,4.72,24.04,6.09,36.17,3.66,22.79-14.06,25.79-31.16,30.05-22.04,8.87-45.82,10.66-69.26,11.2-44.24-13.57-37.22-14.04-50.3-56.59-1.06-3.63-2.4-6.14-6.67-6.75-14.28-6.71-22.02-30.05-39.1-30.74-6.32,5.89-12.88,11.61-18.55,18.09-12.06,16.46-28.84,10.93-33.27,22.7-9.55,22.57-1.17,26.92-21.39,45.88-6.65,5.43-17.02,3.68-25.15,4.28-66.49-3.93-112.45,16.41-91.11-73.69.14-12.19-28.17-11.74-24.33-27.1,9.74-31.84,17.28-65.11,37.78-92.17,4.05-5.56,6.76-12.16,9.64-18.49,48.1-106.43,31.86-34.72-56.43-145.97-13.34,1.57-25.04-5.24-37.39-8.29-86.65-6.15-103.57-114.98-37.27-161.93-31.89-43.51-19.32-156.33,31.87-181.84,4.21-42.12,28.66-72.26,70.46-83.73,11.88-3.43,15.47-20.01,25.64-26.85C208.78,2.8,263.92,11.48,312.72,13.46c16.87-9.19,35.76-10.6,54.34-13.46Z"/>
  </g>
  <g id="b" data-name="layer3">
    <g>
      <path d="m354.98,166c96.88,6.31,196.03,71.74,203.86,174.87,6.47,59.76-2.14,141.42-59.44,171.81-41.49-23.52-89.18-6.29-133.17-1.88-50.78-21.65-167.51-65.13-184.42,16.84-73.33-59.55-92.82-172.87-46.07-253.51,42.04-12.04,74.01-46.59,94.72-83.86,35.85-21.94,83.09-23.56,124.51-24.28Z" style="fill: #9f6615;"/>
      <path d="m296.45,631.78c-18.52-3.04-46.96,1.06-61.19-11.68-4.62-9.53-6.28-17.16,5.55-24.23,54.82-32.39,177.29-88.29,235.62-49.5,28.11,45.87-62.57,53.35-89.42,66.66-29.38,10.84-58.51,22.23-90.56,18.75Z" style="fill: #9f6615;"/>
      <path d="m591.78,342.2c68.87-11.19,96.73,123.28-11.29,122.08,14.77-39.87,14.87-80.48,11.29-122.08Z" style="fill: #9f6615;"/>
      <path d="m81.36,343.54c-3.12,41.94-1.85,81.72,13.62,119.87-83.51,6.86-85.28-101.21-13.62-119.87Z" style="fill: #9f6615;"/>
      <path d="m321.3,521.67c-26.57,10.54-49.6,27.15-77.41,32.93-6.95,4.81-12.26-.49-17.87-3-6.09-2.72-11.64-6.93-13.44-13.38-9.3-55.69,80.71-27.12,108.72-16.55Z" style="fill: #9f6615;"/>
      <path d="m256.96,795.31c-2.73,11.7-5.13,22.97-8.19,34.06-7.67,8.28-61.33,1.05-75.15.54,2.84-14.43,6.27-28.03,10.89-41.77.96-4.49,2.79-4.41,6.56-3.44,21.47,6.41,43.74,8.69,65.89,10.62Z" style="fill: #9f6615;"/>
      <path d="m492.71,829.09c-22.57,3.14-53.1,13.12-72.46-1.19-1.68-9.44-3.22-18.9-4.97-29.35,24.47,2.75,48.22-3.33,72.79-6.99,1.52,12.32,2.98,24.11,4.63,37.53Z" style="fill: #9f6615;"/>
      <path d="m390.13,642.28c16.51-4.35,34.3-7.85,48.86-16.85,3.91-3.08,6.62-2.48,8.48,1.96,11.25,33.66-40.5,25.48-57.33,14.89Z" style="fill: #9f6615;"/>
    </g>
  </g>
  <g id="c" data-name="layer4">
    <path d="m178.38,679.81c84.73,65.77,225.14,34.99,320.87,8.5,8.95,5.32,18.9,57.71,17.83,69.27-36.25,10.34-74.05,12.02-111.54,12.22-17.1,2.13-30.84-11.76-46-17.73-8.53-4.27-18.31-7.22-27.13-2.45-76.91,24.62-29.1,23.04-113.37,10.73-21.13.02-40.32-7.87-59.67-15.27-5.64-8.93,11.4-56.92,19.01-65.28Z" style="fill: #315aab;"/>
  </g>
  <g id="d" data-name="layer5">
    <path d="m215.74,644c4.84,4.8,12.11,4.75,18.4,6.26,30.54,15.54,64.98,17.36,98.29,12.53.07-.32.15-.66.23-1,8.6-.57,20.41-7.52,27.99-5.17,32.29,13.5,88.09,33,108.04-7.87.78-3.54,2.34-3.39,3.31.07,1.34,6.24,5.68,12.75,5.43,18.87-36.96,10.25-74.96,16.88-112.84,21.52-.44,1.22-1.49.81-2.33.82-3.09-.46-9.8,1.06-11.84-.69-25.64-3.16-54.78-.68-78.29-11.51-21.86-3.61-44.29-9.09-63.11-21.34,0-.49,0-.98,0-1.47,2.48-3.09,3.07-7.5,4.98-11.02.58,0,1.16,0,1.74,0Z" style="fill: #fff;"/>
  </g>
  <g id="e" data-name="layer6">
    <path d="m384.5,683.93c-16.81,6.91-196.49-7.99-172.52-35.41,16.89-2.76,31.65,8.12,47.53,11.77,23.26,7.79,47.9,4.77,71.67,2.86,13.79.95,27.58,1.5,41.37.3,27.56,5.7,61.91,20.34,86.31-1.81,4.13-3.92,5.63-8.6,12.17-8.39,3.14-.12,3.63,10.63,5.43,13.34.49,2.29-11.41,3.12-13.56,4.24-25.86,5.81-51.66,13.66-78.38,13.43,0-.1-.02-.21-.03-.31Z" style="fill: #c4e17c;"/>
  </g>
  <g id="f" data-name="layer7">
    <path d="m486.19,332c-.38.15-.75.3-1.1.44,7.5.43,12.13,9.44,9,15.97-1.53,7.72-10.59,7.38-16.43,9.81-39.74,15.36-79.89,30.07-117.35,50.54,38.66,15.43,77.93,29.29,115.77,46.71,8.77,3.3,13.32,13.49,7.03,21.25-4.87,7.13-13.96,5.04-20.6,1.58-44.28-17.7-89.79-39.6-134.85-52.14-37.51,20.71-75.76,40.03-114.57,58.18-10,3.4-19.96,11.35-30.89,9.19-38.52-17.9,105.77-65.94,118.57-80.2-18.25-10.94-139.22-45.77-132.63-60.12-.56-7.97,8.53-9.78,14.24-7.48,49.06,13.95,97.01,31.48,144.5,49.99,1.87.78,3.87,1.49,5.81.37,47.25-25.83,97.14-47.41,148.45-63.7-.15-.14-.29-.27-.43-.41,1.83,0,3.66,0,5.48,0Z"/>
  </g>
</svg>