<?xml version="1.0" encoding="UTF-8"?>
<svg xmlns="http://www.w3.org/2000/svg" viewBox="0 0 684.71 811.25">
  <g id="a" data-name="layer2">
    <path d="m408.95.35c135.28-8.04,243.68,122.79,229.78,253.7-.77,5.57-5.59,11.37-8.22,16.48,73.27,35.48,76.93,165.32-17.92,172.19,8.35,5.37,63.31,31.16,57.07,40.78-16.3,33.86-23.98,73.17-56.5,96.18-8.08-19.32-19.48-37.33-34.36-50.72l-.97,1.27c6.46,19.98,12.92,39.97,19.47,60.25-14.43,7.93-30.51,14.28-36.45-6.24-11.61-30.53-20.88-62.18-36.02-91.21-.63-.17-1.26-.34-1.9-.51-1.66,2.52-4.48,4.92-4.77,7.59-2.79,21.43-15.98,41.7-32.96,54.64,12.44,34.67,28.83,66.95,43.07,100.78,2.87,6.64,2.79,13.64-1.64,20.02-1.7,9.16-8.49,18.51-5.94,27.78,5.93,20.74,30.97,82.18,2.37,91.65-27.98,10.17-57.52,15.74-87.11,16.27-5.14-4.4-13.27-4.48-19.63-6.7-11.64-2.74-18.88-10.11-22.25-21.24-5.91-19.59-11.63-39.24-17.19-58.93-2.05-7.27-6.96-10.64-14.38-9.17-2.41.48-5.1,1.39-7.28.76-13.44-2.92-26.95,2.07-40.46-.28-6.76-.84-8.75-.45-11.94,5.72-39.45,94.88-8.41,88.7-120.14,85.67-14.42-.77-36.34-6.24-36.69-23.99-1.06-31.14,5.29-61.93,20.07-89.46,4.98-9.67,4.84-9.34-2.5-17.4-10.9-11.97-17.2-25.23-7.5-40.13,14.41-32.25,27.97-64.97,44.01-96.47,2.45-5.16,1.74-10.49-.92-12.45-29.39-20.39-56.65-43.31-76.97-72.96-4.09-6.47-12.42-2.51-18.7-4.66-11.67-2.14-22.26-7.83-34.39-9.1-36.56-5.49-63.04-37.27-69.1-72.15,2.19-40.61,14.48-64.2,45.25-90.62-19.88-43.53,4.82-103.25,22.84-144.56C101.54,62.44,181.6,18.14,256.95,8.57c26.39,2.46,58.61-1.65,81.23,14.05,3.46,2.79,6.05,2.51,9.69.47,18.78-11.97,39.46-17.97,61.08-22.73Z"/>
  </g>
  <g id="b" data-name="layer3">
    <g>
      <path d="m269.97,121.35c.9,1.51,1.79,3.02,2.88,4.87-19.4,39.54-26.35,84.41-25.82,128.4-.13,9.73,3.83,12.96,13.33,14.03q11.19,1.26,13.72-9.91c3.31-14.78,6.6-29.57,9.87-44.36,1.87-8.46,3.81-11.53,9.8-14.31-.76,20.98-4.29,41.59-2.85,62.65-.11,6.54,5.9,8.02,11.12,8.71,4.12,1.6,5.13-.62,5.96-4.1,2.39-10.01,5.04-19.95,7.68-29.9.77-2.92,2.22-5.49,5.88-4.49,3.67,1.01,2.86,3.99,2.86,6.88,0,9.47.08,18.97.89,28.39.13,1.54,4.1,3.77,6.42,3.95,26.2,2.93,52.15-.37,77.82-6.01,24.14-4.6,17.09-35.4,15.96-53.08-1.34-21.89-6.31-43.12-13.71-64.01,1.56-1.28,3.13-2.57,5.01-4.1,39.72,34.21,78.84,70.56,127.83,91.17,36.64,71.11,22.91,175.3-40.64,229.1-44.17-31.21-95.36-3.54-142.57-5.86-50.2-21.25-165.38-64.45-176.75,20.05-19.76-17.35-33.54-38.57-49.54-59.01-34.2-53.87-32.52-136.37-2.3-190.84,52.8-26.33,94.46-67.37,136.15-108.22.33,0,.67,0,1,0Z" style="fill: #e1bd79;"/>
      <path d="m655.92,358.32c-3.65,41.16-35.03,51.44-71.26,56.37-4.03.51-5.47-1.02-4.18-4.45,8.23-21.89,11.69-44.55,12.61-67.91.65-16.41-.03-32.6-2.19-48.78-.47-3.52,1.15-4.32,3.86-4.97,39.13-7.32,60.54,36.8,61.17,69.74Z" style="fill: #e1bd79;"/>
      <path d="m440.95,786.27c-4.81-1.52-9.64-2.98-14.43-4.56-7.57-2.49-6.82-2.61-7.26-10.67-2.29-21.77-13.47-41.28-17-62.87,25.62-2.43,49.67-7.12,74.81-11.52,5.7-1.02,6.98-.69,7.84,4.94,3.73,23.29,6.35,46.84,10.26,70.06,1.18,4.66-.45,7.28-4.77,7.99-16.28,2.96-33.5,3.82-49.43,6.64Z" style="fill: #e1bd79;"/>
      <path d="m29,350.32c6.32-29.88,21.84-53.5,53.83-59.55-.13,39.86-3.06,80.89,14.04,118.24,1.33,2.88.82,3.96-2.56,4.55-36.78,5.61-71.64-27.05-65.31-63.24Z" style="fill: #e1bd79;"/>
      <path d="m296.84,580.91c-176.84-6.51,55.41-97.84,109.95-98.11,26.78-5.23,84.6-6.58,76.03,34.66-7.7,19.31-30.9,24.75-48.64,30.97-45.12,13.01-89.22,36.65-137.34,32.48Z" style="fill: #e1bd79;"/>
      <path d="m277.75,711.62c-9.77,21.05-22.91,40.09-25.51,63.45-.55,15.87-61.1,5.51-73.58,5.73-5.06-.45-6.1-3.03-4.91-7.36,26.48-95.9,10.69-80.84,104-61.82Z" style="fill: #e1bd79;"/>
      <path d="m324.14,471.13c-27.49,8.84-51.64,26.14-79.44,33.46-6.46,4.19-11.78.21-17.04-2.55-6.99-3.67-14.38-8.09-15.71-16.35-7.09-55.91,83.84-29.25,112.11-16.15.03.53.06,1.06.09,1.59Z" style="fill: #e1bd79;"/>
      <path d="m386.49,589.98c18.65-4.39,37.89-8.09,54.44-18.35,12.32-6.58,16.72,23.8-.48,27.39-18.18,6.37-36.73-.37-53.92-6.71l-.04-2.33Z" style="fill: #e1bd79;"/>
    </g>
  </g>
  <g id="c" data-name="layer4">
    <path d="m470.4,595.1c7.8,20.11,13.96,41.42,13.78,63.16-60.26,19.58-131.25,20.63-195.28,13.39-14.06-1.11-28.16-3.48-42.24-3.63-8.09.61-15.36-3.96-23.13-5.48-10.86-3.69-16.84-13.5-23.38-22.28-.81-1.07-.61-2.1-.24-3.32,3.85-14.35,8.56-28.39,14.07-42.19,60.49,20.75,78.69,29,144.88,11.37,33.66,14.68,94.29,35.47,111.54-11.02Z" style="fill: #ab2014;"/>
  </g>
  <g id="d" data-name="layer5">
    <path d="m481.99,284.35c-.06.15-.11.3-.17.45,1.91.34,4.26.37,5.42,1.77.77,0,1.21,0,1.65,0-.2.36-.4.71-.67,1.2,6.67,10.27-1.14,16.77-11.12,18.74-38.53,15.94-81.6,29.03-116.28,51.42,25.49,14.49,57.48,22.04,84.9,34.71,10.85,5.24,22.68,8.66,32.96,14.95,2.09,2.65,1.89,6.81,3.66,9.78-3.82,1.55-2.55,8.5-10.23,9.26-1.36.17-2.31,1.93-4.03.77-39.66-17.94-80.87-32.26-121.06-48.96-5.71-1.42-11.62-6.55-17.54-4.87-36.56,20.06-73.62,39.27-111.54,56.61,3.94,2.68-16.92,9.06-19.35,10.58v-1.66c-7.17,2.69-16.1,3.09-17.07-6.49-3.16-12.33,72.72-39.73,85.94-49.11,11.88-5.94,23.55-12.34,35.29-18.55,7.24-4.94-17.94-10.37-21.06-12.71-34.72-13.67-70.11-25.78-104.21-40.95-2.63-1.74-2.61-5.62-3.7-8.35-.39-1.5,1.91-4.32,3.31-4.96,9.52-3.28,18.91,3.29,28.13,5.23,203.3,68.38,71.18,45.36,275.19-18.36-.52-.22-.85-.35-1.17-.49.91,0,1.83,0,2.74,0Z"/>
  </g>
</svg>