<?xml version="1.0" encoding="UTF-8"?>
<svg xmlns="http://www.w3.org/2000/svg" viewBox="0 0 131.11 221.14">
  <g id="a" data-name="layer2">
    <path d="m14.9,94.43c.47-9.41,3.62-20.74,13.62-24.04,6.88-9.3,16.66-17.96,28.27-20.8,3.26-2.24,1.21-20.15-.46-24.19-3.55-6.4-10.3-10.94-11.24-18.96C42.85,2.35,57.7,1.37,60.66,0c8.08-.03,25.79.17,30.04,7.17-2.32,5.31-4.88,10.56-8.95,14.78-1.62.68-1.77,2.17-2.02,3.61-.33,7.33-6.09,21.25,2.01,25.56,3.58,1.64,6.97,3.79,9.73,6.68,5.07,4.3,7.91,10.74,12.67,15.01,7.06,3.58,15.54,14.15,15.26,22.32,9.61-.47,10.54,17.19,11.72,24.27-.6,3.58-3.33,6.62-4.73,9.97-.79,2.34-.59,5.09-1.44,7.41-3.3,8.47-9.71,15.63-16.76,21.03-2.24,7.94-4.24,15.95-6.71,23.82-4.08,8.65-7.38,30.23-16.13,33.51-8.52,2.46-17.56,7.67-26.58,5.48-6-2.36-13.75-2.03-18.15-7.31-9.82-16.08-11.59-35.82-16.74-53.7-1.6-5.49-7.45-8.19-10.51-12.77-3.07-5.95-10.05-11.33-8.41-18.58.14-.78-.06-1.75-.43-2.45-5.32-6.73-6.07-15.63-1.54-23.03,3.46-6.2,4.24-8.44,11.92-8.33Z"/>
  </g>
  <g id="b" data-name="layer3">
    <path d="m4.68,114.36c2.41-5.26,2.51-12.92,7.19-16.53,3.18-.09,9.31-.28,7.48,4.6-4.42,5.5-9.28,10.36-12.14,16.97-.89-1.43-1.71-2.75-2.53-4.07,0-.32,0-.64,0-.96Z" style="fill: #edb07c; stroke: #edb07c; stroke-miterlimit: 10;"/>
    <path d="m126.12,119.16c-.19.28-.79.96-1.1,1.42-3.71-5.89-6.8-12.28-12.02-17.11,1.97-2.84,4.02-4.35,7.51-4.24.11-.02.32.32.41.52,2.72,6.2,5.32,12.57,5.21,19.41Z" style="fill: #edb07c; stroke: #edb07c; stroke-miterlimit: 10;"/>
    <path d="m40.28,69.78c-1.13-.16-1.92-.27-2.95-.41,15.31-24.87,48.1-24.51,60.44,2.94-1.33.12-2.51.23-3.76.34,4.8,9.39,4.9,20.78,11.18,29.32,6.38,8.91,18.37,18.61,15.9,30.55-3.43,6.25-7.81,11.94-12.13,17.6-11.2,18.52-13.56,41.87-25.55,59.96-16.27,3.55-23.91,6.34-38.73-4.42-8.21-14.8-12.39-31.32-16.96-47.48-3.42-9.48-10.85-17.12-15.83-25.86-4.29-12.27,13.71-31.3,21.28-40.3,2.73-7.24,5.35-14.67,7.1-22.25Z" style="fill: #edb07c; stroke: #edb07c; stroke-miterlimit: 10;"/>
  </g>
  <g id="c" data-name="layer4">
    <path d="m63.18,214.74c-15.3-3.79-17-6-19-10,1.39-.92,2.73.4,3.92.72,16.38,5.96,39.08-1.72,39.08-1.72l-3.5,6.5s-16.5,4.5-20.5,4.5Z" style="fill: #eaa062; stroke: #eaa062; stroke-miterlimit: 10;"/>
    <path d="m18.18,98.74c.58,1.23,2.4,1.77,1.08,3.08-3.93,3.98-11.08,15.92-11.08,15.92,0,0,1.53-15.79,7-19.5.32,0,2.68.5,3,.5Z" style="fill: #eaa062; stroke: #eaa062; stroke-miterlimit: 10;"/>
    <path d="m124.18,118.74s-6.77-11.35-11.26-15.34c6.24-8.72,11.26,15.34,11.26,15.34Z" style="fill: #eaa062; stroke: #eaa062; stroke-miterlimit: 10;"/>
    <path d="m13.18,134.74s10.62,7.7,17.92,5.44c7.9-4.08,7.48-4.94,14.63-8.28,11.85,10.51,29.15,13.41,42.79,3.53-1.58-1.3-9.54-5.79-3.29-5.26,3.53,2.2,7.15,4.3,10.16,7.24,9.9,11.03,32.17-13.09,23.79-.68,0,0-7.72,8.99-12.09,17.09-1.99,3.51-6.87.88-10.02.47-2.92,8.48-7.46,16.78-13.11,23.76l-.38-.11c.27-10.74,2.63-21.89,4.22-32.58-2.72-1.8-5.09-.63-7.45.53-10.87,7.03-22.85,4.03-33.95-.62-1.26-.08-1.41.11-1.27,1.33.95,9.78,2.4,19.5,3.26,29.26-4.49-4.96-7.7-11.56-11.54-17.21-1.71-1.75-.92-6.41-3.54-6.88-2.88-.41-9.08-.05-9.08-.05" style="fill: #eaa062; stroke: #eaa062; stroke-miterlimit: 10;"/>
    <path d="m80.3,191.39c.59,5.99-7.37,8.55-11.39,11.58-6.08,3.39-11.2-2.54-15.24-6.44-1.19-1.2-2.55-2.52-1.68-4.78,8.91,12.72,18.67,9.56,28.32-.36Z" style="fill: #eaa062; stroke: #eaa062; stroke-miterlimit: 10;"/>
  </g>
  <g id="d" data-name="layer5">
    <path d="m99.91,144.22c-2.12.01-4.23.2-6.31-.34-.79,9.51-3.72,19.71-8.23,28-.03-.01-.06-.03-.09-.04.94-7.88,2.31-15.69,3.33-23.57-22.1,11.02-25.11,7.77-46.9-.28.81,6.89,2.23,13.68,3.94,20.42-.02.01-.04.03-.07.04-13.02-15.75-4.17-24.99-15.47-23.91,10.79-4.86,16.12-15.79,25.6-22.29,2.43.53,2.89,4.25,3.91,6.29-1.72-.05-3.48-1.69-4.98-.27-1.38,1.97-6.94,5.3-4.61,7.72,13.34,8.78,11.52,9.1,25.12.5,5.47-3.55-6.04-23.53-5.27-28.23,16.99,22.4,2.73,16.89,30.04,35.97Zm-60.29-1.14c3.6,4.04,10.47,4.43,15.55,6.56,11.33,4.33,22.75-2.1,33.74-4.49.12-1.02-.35-2.17.39-3.04-2.39-1.24-5.08-1.75-7.09-3.72-.42-.33-.56-.33-.97.03-3.86,5.71-11.55,8.2-18.12,8.96-6.77-.99-12.31-5.71-18.12-8.81-1.62,1.69-3.39,3.21-5.39,4.51Z"/>
    <path d="m75.16,104.21c3.29-4.72,8.61-11.06,14.59-11.39,4.96,1.98,11.86,6.08,12.93,11.47-5.79-.2-12.22-3.37-18.37-1.71-3.04.32-6.15,2.73-9.15,1.64Z"/>
    <path d="m44.34,101.3c-4.95-.18-9.74.59-14.55,1.12-1.84-3.69,9.17-8.95,12.26-10.56,6.32-1.01,11.41,6.93,14.21,11.8.08.39-.1.6-.49.49-3.69-1.27-7.53-2.62-11.44-2.85Z"/>
    <path d="m92.94,107.72c1.08,6.84-9.62,6.88-8.26.1-2.13.33-4.18,1.39-6.37,1.28-.02-.03-.03-.06-.05-.09,8.27-14.48,34.93,5.81,14.68-1.29Z"/>
    <path d="m54.99,109.38c-2.4.02-4.73-1.95-7.23-1.78-1.05,5.6-10.59,5.32-9.36-1.13-18.56,8.47,4.4-13.27,16.59,2.91Z"/>
    <path d="m52.28,191.39c14.82,5.95,13.49,5.15,28.06-.13-8.78,10.21-20.08,12.9-28.1.21.01-.02.03-.05.04-.07Z"/>
  </g>
  <g id="e" data-name="layer6">
    <path d="m63.19,46.24c3.04-28.65-10.49-23.36,10.36-22.57.63,7.07-.71,22.07-.71,22.07" style="fill: #fff; stroke: #fff; stroke-miterlimit: 10;"/>
  </g>
</svg>