<?xml version="1.0" encoding="UTF-8"?>
<svg xmlns="http://www.w3.org/2000/svg" viewBox="0 0 128.79 223.92">
  <g id="a" data-name="layer2">
    <path d="m120.58,100.37c8.26.68,7.03,15.18,7.49,21.25.55,2.44-2.38,3.27-2.23,5.25,4.22,10.32-3.35,19.78-10.15,26.99-19.82,37.04-8.2,93.07-73.42,57.32-10.41-5.11-13.88-34.87-20.48-46.56-4.66-11.5-8.76-23.43-11.96-35.21-12.25-11.17-11.5-16.24-6.16-31.31.52-1.3,1.41-2.04,2.66-2.57,3.87-4.6,3.58-12.04,8.19-16.5,1.59-2.3,4.47-2.44,6.7-3.68,2.6-2.96,2.58-7.63,5.25-10.71,2.8-5.94-.62-13.15-.02-19.56.12-7.04,1.89-14.02,2.97-20.97.05-.31.06-.82-.12-.95-4.12-2.97-4.7-7.72-6.01-12.05C20.71,2.26,21.55,1.1,31.05.42c21.75.98,46.71-4.87,23.6,24.2-6.36,4.36-7.77,20.47-6.95,27.99,36.22-14.21,68.25,13.03,72.88,47.76Z"/>
  </g>
  <g id="b" data-name="layer3">
    <g>
      <path d="m63.41,54.42c12.1-1.49,17.09.58,27.73,5.58,5.06,3.29,13.66,13.73,17,18.57,10,19.43,9,15.43,6.16,32.37,4.56,14.09,10.69,18.04,2.14,33.29-9.22,14.46-13.43,31.18-18.01,47.57-1.8,4.81-2.34,10.75-5.51,14.79-5.33,3.47-9.83,9.56-16.07,11.04-11.36-4.4-26.08-5.13-34.94-14.03-7.36-13.6-10.23-28.65-15.85-42.88-3.93-9.32-7.9-18.6-7.71-28.89,2.11-5.53,4.94-4.82-2.58-5.78-4.24-2.12-7.56-5.72-11.16-8.74.56-8.63,7.28-26.02,15.94-12.54.69.69.75,1.33.53,2.2-1.62,6.53.66,12.99,3.22,19.05,1.5-2.74,5.4-4.47,3.84-7.72-.1-2.72-.16-5.5-.28-8.22-2.13-5.96,6.63-8.36,6.26-13.9-3.01-8.97,7.97-24.46-5.84-21.87,2.61-4.07,4.63-9.36,9.64-10.76,8.31-3.51,16.65-7.19,25.48-9.12Z" style="fill: #edb07c;"/>
      <path d="m124.85,119.22c-.38.42-.76.84-1.27,1.39-2.31-5.89-7.39-9.78-3.84-16.32.16-.02.32-.04.49-.06,2.72,4.49,3.04,10.04,4.62,14.99Z" style="fill: #edb07c;"/>
    </g>
  </g>
  <g id="c" data-name="layer4">
    <g>
      <path d="m76.15,218c-36-12-35.83-7.28-44.34-40.68.1-.08.19-.16.29-.23,13.29,31.82,53.06,35.91,53.06,35.91,0,0-6.93,4.94-9,5Z" style="fill: #eaa062;"/>
      <path d="m11.15,110.44c.27-4.37,5.04-10,8.89-6.34,1.25,1.07,1.66,2.31,1.12,3.98-1.57,5.66,1.29,11.25,2.49,16.74-5.97-.96-13.65-7.68-12.5-14.38Z" style="fill: #eaa062;"/>
      <path d="m35.61,64.84c-1,2.89-1.26,6.65-2.76,9.2-1.26.56-2.89,0-4.47.16,2.67-3.01,3.77-7.46,7.23-9.36Z" style="fill: #eaa062;"/>
      <path d="m122.99,116.68c-.15.16-.3.32-.51.54-1.92-3.19-4.72-5.86-3.48-9.85.16-.06.32-.11.48-.17,1.79,2.65,3.22,6.26,3.52,9.48Z" style="fill: #eaa062;"/>
      <path d="m69.9,133.92c.42,2.8.81,5.42,1.16,7.76,17.33,11.27,32.61,6.94,48.42-4.2.09.09.18.19.27.28-2.93,5.17-8.29,20.9-14.42,20.76-3.54,7.44-6.64,15.23-11.5,21.86-.16-.07-.32-.14-.48-.21.53-10.17,2.93-20.4,4.11-30.42-9.14,3.06-17.7.28-26.14-2.18-2.23,1.78-6.6,2.27-7.44,5.12-.48,9.42.71,18.87-.79,28.21-6.49-5.53-8.94-14.61-14.07-21.16-7.79-4.74-17.34-4.68-25.01-9.62-4.18-.59-4.04-7.36-5.6-10.38-.05-3.32-.66-7.8.96-10.74,1.08-.94,1.92-.78,1.43-2.62,7.87,3.39,10.32,14.33,19.66,15.35,3.72.77,7.88,3.1,11.57,1.29,5.63-3.68,11.98-6,17.87-9.09Z" style="fill: #eaa062;"/>
      <path d="m65.88,196.47c-1.82-.63-3.45-1.18-5.2-1.78,3.73,8.16,20.53,12.59,26.16,3.92,2.43,4.28-3.69,7.61-6.93,8.96-5.48,1.95-10.44-2.57-14.88-5.22-11.01-6.84-3.62-11.96.85-5.87Z" style="fill: #eaa062;"/>
    </g>
  </g>
  <g id="d" data-name="layer5">
    <g>
      <path d="m98.12,155.15c-11.49,8.8-25.3,2.68-37.83-.26,5.08,34.88-2.88,16.3-5.52-3.7-3.49.01-7.64.23-10.28-2.45,24.02,3.85,30.75-39.27,42.82-15.65-9.02-4.18-8.61-2.88-13.08,5.08,6.75,1.3,13.68,6.23,20.46,5.57,3.8-2.76,9.12-3.94,11.98-7.71-2.5-9.31-10.55-16.26-13.45-25.53-1.48-5.99,5.46-11.09,9.78-14.2,4.63-2.83,11.76,6.66,10.74,11.05-4.24.13-10.08-2.8-13.63-.48,4.76-1.1,9.98,1.89,11.15,6.73-1.49-.56-2.74-1.39-4.26-1.94.27,4.4-4.52,6.57-7.78,3.88,6.86,7.88,18.21,22.82,5.56,30.17,1.71,1.91,3.11,12.2-1.36,6.29-1.47,6.55-3.25,13.89-7.83,18.78.8-5.25,1.99-10.4,2.53-15.62Zm-38.21-5.16c13.04,2.61,31.81,12.22,40.81-2.03-9.36,2.54-20.55-.82-28.78-5.58-3.67-.55-7.86,6.35-12.03,7.6Zm36.84-38.18c.47.62.9,1.18,1.33,1.74.02-.02.04-.04.06-.05v-2.33c-.46.21-.89.41-1.4.65Z"/>
      <path d="m75.17,105.96c-10.42-2.32-21.27-1.85-31.06,2.06,6.05-12.82,15.15-19.93,27.15-8.13.9,1.07,6.71,5.38,3.92,6.04,0,.01,0,.02,0,.03Z"/>
      <path d="m65.16,110.46c.59,8.24-11.13,6.97-10.02-.73-2.83,1.5-6.61,4.29-9.68,3.77,3.97-4.72,10.32-9.44,16.93-7.75,5.65,1.13,18.52,11.92,2.78,4.71Z"/>
      <path d="m60.46,194.83c8.76,3,18.28,7.37,26.92,1.91-4.42,10.85-22.38,6.72-26.92-1.91Z"/>
    </g>
  </g>
  <g id="e" data-name="layer6">
    <path d="m34.95,25.5c.67,0,1.34,0,2.01,0-.27.03-.53.07-.8.1,3.58.25,7.15.41,10.71.96-11.33,29.63,6.87,24.38-14.44,32.29-.56-11.14,1.15-22.3,2.52-33.36Z" style="fill: #fff; stroke: #fff; stroke-miterlimit: 10;"/>
  </g>
</svg>